<svg xmlns="http://www.w3.org/2000/svg" viewBox="0 0 32 32" fill="none">
  <defs>
    <linearGradient id="bg" x1="0%" y1="0%" x2="100%" y2="100%">
      <stop offset="0%" stop-color="#3b0764"/>
      <stop offset="100%" stop-color="#083344"/>
    </linearGradient>
    <linearGradient id="star" x1="0%" y1="0%" x2="100%" y2="100%">
      <stop offset="0%" stop-color="#e879f9"/>
      <stop offset="100%" stop-color="#22d3ee"/>
    </linearGradient>
  </defs>
  <!-- Background with rounded corners -->
  <rect width="32" height="32" rx="10" fill="url(#bg)"/>
  <!-- Main thick sparkle -->
  <path d="M16 6 C16 11.523 11.523 16 6 16 C11.523 16 16 20.477 16 26 C16 20.477 20.477 16 26 16 C20.477 16 16 11.523 16 6 Z" fill="url(#star)"/>
  <!-- Small bottom right cyan sparkle -->
  <path d="M25 21 C25 23.209 23.209 25 21 25 C23.209 25 25 26.791 25 29 C25 26.791 26.791 25 29 25 C26.791 25 25 23.209 25 21 Z" fill="#22d3ee" opacity="0.9"/>
  <!-- Small top left purple sparkle -->
  <path d="M10 5 C10 6.657 8.657 8 7 8 C8.657 8 10 9.343 10 11 C10 9.343 11.343 8 13 8 C11.343 8 10 6.657 10 5 Z" fill="#c084fc" opacity="0.9"/>
</svg>